<?xml version="1.0" encoding="UTF-8" standalone="no"?>
<!-- Created with Inkscape (http://www.inkscape.org/) -->

<svg
   width="48"
   height="48"
   viewBox="0 0 48 48"
   version="1.1"
   id="svg1"
   sodipodi:docname="network.svg"
   inkscape:version="1.4 (86a8ad7, 2024-10-11)"
   xmlns:inkscape="http://www.inkscape.org/namespaces/inkscape"
   xmlns:sodipodi="http://sodipodi.sourceforge.net/DTD/sodipodi-0.dtd"
   xmlns="http://www.w3.org/2000/svg"
   xmlns:svg="http://www.w3.org/2000/svg">
  <sodipodi:namedview
     id="namedview1"
     pagecolor="#505050"
     bordercolor="#ffffff"
     borderopacity="1"
     inkscape:showpageshadow="0"
     inkscape:pageopacity="0"
     inkscape:pagecheckerboard="1"
     inkscape:deskcolor="#505050"
     inkscape:document-units="px"
     inkscape:zoom="12.006084"
     inkscape:cx="0.58303774"
     inkscape:cy="25.278851"
     inkscape:window-width="1920"
     inkscape:window-height="1017"
     inkscape:window-x="-8"
     inkscape:window-y="-8"
     inkscape:window-maximized="1"
     inkscape:current-layer="layer1" />
  <defs
     id="defs1">
    <inkscape:path-effect
       effect="fillet_chamfer"
       id="path-effect7"
       is_visible="true"
       lpeversion="1"
       nodesatellites_param="F,0,0,1,0,1.8988591,0,1 @ F,0,0,1,0,1.3761877,0,1 @ F,0,0,1,0,1.2914018,0,1 @ F,0,0,1,0,0,0,1 @ F,0,0,1,0,1.3400621,0,1 @ F,0,0,1,0,1.292669,0,1"
       radius="0"
       unit="px"
       method="auto"
       mode="F"
       chamfer_steps="1"
       flexible="false"
       use_knot_distance="true"
       apply_no_radius="true"
       apply_with_radius="true"
       only_selected="false"
       hide_knots="false" />
    <inkscape:path-effect
       effect="fillet_chamfer"
       id="path-effect5"
       is_visible="true"
       lpeversion="1"
       nodesatellites_param="F,0,0,1,0,1.8988591,0,1 @ F,0,0,1,0,1.3761877,0,1 @ F,0,0,1,0,1.2914018,0,1 @ F,0,0,1,0,0,0,1 @ F,0,0,1,0,1.3400621,0,1 @ F,0,0,1,0,1.292669,0,1"
       radius="0"
       unit="px"
       method="auto"
       mode="F"
       chamfer_steps="1"
       flexible="false"
       use_knot_distance="true"
       apply_no_radius="true"
       apply_with_radius="true"
       only_selected="false"
       hide_knots="false" />
    <inkscape:path-effect
       effect="fillet_chamfer"
       id="path-effect3"
       is_visible="true"
       lpeversion="1"
       nodesatellites_param="F,0,0,1,0,1.8988591,0,1 @ F,0,0,1,0,1.3761877,0,1 @ F,0,0,1,0,1.2914018,0,1 @ F,0,0,1,0,0,0,1 @ F,0,0,1,0,1.3400621,0,1 @ F,0,0,1,0,1.292669,0,1"
       radius="0"
       unit="px"
       method="auto"
       mode="F"
       chamfer_steps="1"
       flexible="false"
       use_knot_distance="true"
       apply_no_radius="true"
       apply_with_radius="true"
       only_selected="false"
       hide_knots="false" />
  </defs>
  <g
     inkscape:label="Layer 1"
     inkscape:groupmode="layer"
     id="layer1">
    <path
       id="path28"
       style="fill:#000000;stroke-width:1.34046"
       d="M 25.818359 0.076171875 L 25.972656 0.17578125 C 25.972656 0.17578125 23.359277 2.6438261 20.375 6.2402344 A 3.5337422 3.5337422 0 0 1 20.769531 7.859375 A 3.5337422 3.5337422 0 0 1 17.236328 11.392578 A 3.5337422 3.5337422 0 0 1 16.550781 11.318359 C 16.163919 11.895167 15.792974 12.4855 15.431641 13.080078 C 16.986477 13.339805 18.564085 13.670225 20.09375 14.085938 C 21.614829 14.499317 23.452575 15.567133 25.431641 17.027344 C 31.005604 11.729386 38.838824 6.8899519 39.986328 6.1914062 A 24 24 0 0 0 25.818359 0.076171875 z M 22.755859 0.08984375 A 24 24 0 0 0 3.2246094 12.123047 C 4.632205 12.110855 8.2678083 12.137677 12.859375 12.710938 C 13.374089 11.821784 13.930718 10.9509 14.505859 10.095703 A 3.5337422 3.5337422 0 0 1 13.701172 7.859375 A 3.5337422 3.5337422 0 0 1 17.236328 4.3242188 A 3.5337422 3.5337422 0 0 1 18.652344 4.6230469 C 20.276827 2.6908867 21.771933 1.0941145 22.755859 0.08984375 z M 41.617188 7.7109375 C 39.430526 9.0642898 32.331995 13.605143 27.273438 18.464844 C 34.684094 24.520307 43.081831 34.446219 44.589844 36.251953 A 24 24 0 0 0 48 24 A 24 24 0 0 0 41.617188 7.7109375 z M 3.421875 14.449219 C 2.5310801 14.442204 2.1380572 14.453755 2.0117188 14.457031 A 24 24 0 0 0 0 24 A 24 24 0 0 0 0.15820312 26.205078 C 2.6934304 25.670739 6.5366481 24.949297 10.544922 24.519531 C 10.727672 20.866078 11.128652 17.460736 11.892578 14.982422 C 8.3647878 14.562132 5.2257106 14.463423 3.421875 14.449219 z M 14.285156 15.314453 C 13.440888 17.543268 12.970301 20.759028 12.740234 24.318359 C 15.281574 24.12564 17.791443 24.083357 19.974609 24.324219 C 20.245587 23.669004 20.533848 23.049485 20.849609 22.498047 C 21.565188 21.24838 22.599423 19.951928 23.810547 18.660156 C 22.203941 17.550271 20.71678 16.741917 19.449219 16.396484 C 17.752342 15.934056 16.00008 15.584842 14.285156 15.314453 z M 25.701172 20.056641 C 24.571439 21.277286 23.612519 22.49845 22.939453 23.675781 C 22.747269 24.011952 22.565618 24.374479 22.390625 24.751953 C 22.450196 24.767229 22.513607 24.77898 22.572266 24.794922 C 25.446764 25.576116 28.859234 27.618941 32.060547 29.919922 A 2.8858895 2.8858895 0 0 1 35.607422 30.333984 A 2.8858895 2.8858895 0 0 1 36.330078 33.210938 C 39.611311 35.899571 42.141174 38.311711 42.75 38.900391 A 24 24 0 0 0 43.361328 38.021484 C 40.781585 34.958921 32.588826 25.463107 25.701172 20.056641 z M 15.566406 26.474609 C 14.606308 26.485458 13.618129 26.530744 12.625 26.599609 C 12.616867 26.819178 12.604322 27.035063 12.597656 27.255859 A 2.8858895 2.8858895 0 0 1 14.371094 29.919922 A 2.8858895 2.8858895 0 0 1 12.5625 32.589844 C 12.632732 37.835913 12.97358 42.743792 13.1875 45.371094 A 24 24 0 0 0 16.556641 46.744141 C 16.570689 45.904492 16.651802 42.401203 17.072266 38.167969 A 2.8858895 2.8858895 0 0 1 15.548828 35.632812 A 2.8858895 2.8858895 0 0 1 17.763672 32.832031 C 18.115903 30.678695 18.575859 28.543994 19.162109 26.621094 C 18.03314 26.505635 16.824219 26.460397 15.566406 26.474609 z M 10.458984 26.785156 C 6.6735141 27.171474 3.066454 27.832415 0.453125 28.371094 A 24 24 0 0 0 11.001953 44.171875 C 10.80894 41.7013 10.521091 37.349854 10.435547 32.599609 A 2.8858895 2.8858895 0 0 1 8.5996094 29.919922 A 2.8858895 2.8858895 0 0 1 10.443359 27.234375 C 10.446714 27.083609 10.455014 26.935604 10.458984 26.785156 z M 21.511719 27.005859 C 20.885662 28.892345 20.397435 31.035784 20.021484 33.222656 A 2.8858895 2.8858895 0 0 1 21.320312 35.632812 A 2.8858895 2.8858895 0 0 1 19.333984 38.369141 C 18.914758 42.348394 18.775937 45.868177 18.742188 47.375 A 24 24 0 0 0 24 48 A 24 24 0 0 0 41.294922 40.560547 C 40.090688 39.41927 37.702878 37.237186 34.871094 34.943359 A 2.8858895 2.8858895 0 0 1 31.527344 34.414062 A 2.8858895 2.8858895 0 0 1 30.744141 31.792969 C 27.743097 29.672154 24.60192 27.834231 21.927734 27.105469 C 21.793456 27.068876 21.650741 27.038948 21.511719 27.005859 z " />
  </g>
</svg>
